<?xml version="1.0" standalone="no"?>
<!DOCTYPE svg PUBLIC "-//W3C//DTD SVG 20010904//EN"
 "http://www.w3.org/TR/2001/REC-SVG-20010904/DTD/svg10.dtd">
<svg version="1.0" xmlns="http://www.w3.org/2000/svg"
 width="512.000000pt" height="512.000000pt" viewBox="0 0 512.000000 512.000000"
 preserveAspectRatio="xMidYMid meet">
<metadata>
Created by potrace 1.14, written by Peter Selinger 2001-2017
</metadata>
<g transform="translate(0.000000,512.000000) scale(0.100000,-0.100000)"
fill="#000000" stroke="none">
<path d="M825 4811 c-97 -27 -139 -46 -220 -99 -208 -138 -390 -401 -518 -752
-64 -174 -93 -283 -77 -288 32 -11 90 -77 115 -133 39 -87 53 -185 60 -419 10
-342 27 -489 76 -672 24 -90 64 -141 122 -156 79 -22 137 4 209 93 28 36 52
64 53 62 2 -1 12 -48 24 -105 93 -439 333 -800 693 -1043 48 -33 94 -72 102
-87 20 -38 102 -118 152 -148 35 -20 44 -32 53 -72 22 -88 73 -173 151 -253
99 -102 159 -140 353 -223 20 -8 37 -21 37 -29 0 -17 83 -103 128 -130 71 -44
124 -60 211 -63 150 -4 274 61 357 186 15 22 33 40 41 40 8 0 53 18 100 40
206 97 352 249 399 418 15 54 22 65 58 87 51 30 120 96 154 148 15 22 59 61
102 90 287 192 498 463 619 795 32 85 66 210 77 277 12 77 17 81 47 38 34 -49
95 -106 127 -120 60 -25 151 2 190 57 32 45 71 202 94 380 8 61 16 229 21 417
3 101 7 193 9 205 3 13 8 39 10 58 16 114 103 260 154 260 18 0 11 32 -45 198
-171 512 -410 817 -728 930 -180 64 -425 27 -735 -110 -101 -45 -115 -49 -205
-55 -59 -4 -100 2 -245 36 -233 55 -219 53 -379 70 -83 8 -393 7 -458 -3 -24
-3 -62 -9 -85 -12 -39 -5 -101 -16 -153 -28 -11 -2 -65 -16 -120 -30 -55 -15
-136 -29 -180 -32 -90 -7 -138 6 -340 90 -171 70 -280 97 -420 102 -97 3 -133
1 -190 -15z"/>
</g>
</svg>
